<svg width="70" height="70" viewBox="0 0 70 70" fill="none" xmlns="http://www.w3.org/2000/svg">
<path fill-rule="evenodd" clip-rule="evenodd" d="M23.3333 11.6667H46.6667V5.83337H52.5V11.6667H55.4167C56.9638 11.6667 58.4475 12.2813 59.5415 13.3753C60.6354 14.4692 61.25 15.9529 61.25 17.5V58.3334C61.25 59.8805 60.6354 61.3642 59.5415 62.4582C58.4475 63.5521 56.9638 64.1667 55.4167 64.1667H14.5833C13.0362 64.1667 11.5525 63.5521 10.4585 62.4582C9.36458 61.3642 8.75 59.8805 8.75 58.3334V17.5C8.75 15.9529 9.36458 14.4692 10.4585 13.3753C11.5525 12.2813 13.0362 11.6667 14.5833 11.6667H17.5V5.83337H23.3333V11.6667ZM14.5833 23.3334V58.3334H55.4167V23.3334H14.5833ZM20.4167 32.0834H26.25V37.9167H20.4167V32.0834ZM32.0833 32.0834H37.9167V37.9167H32.0833V32.0834ZM43.75 32.0834H49.5833V37.9167H43.75V32.0834ZM43.75 43.75H49.5833V49.5834H43.75V43.75ZM32.0833 43.75H37.9167V49.5834H32.0833V43.75ZM20.4167 43.75H26.25V49.5834H20.4167V43.75Z" fill="black"/>
</svg>
