<svg width="201" height="200" viewBox="0 0 201 200" fill="none" xmlns="http://www.w3.org/2000/svg">
<path d="M100.594 20C56.1193 20 20 56.1064 20 100.587C20.0063 101.973 21.1333 103.093 22.5184 103.093H44.4655V115.754L38.4782 119.343V119.349C38.409 119.4 38.3334 119.456 38.2642 119.519C36.7594 118.134 34.7573 117.284 32.5663 117.284C27.9451 117.284 24.1486 121.087 24.1486 125.702C24.1486 130.323 27.9514 134.126 32.5663 134.126C37.1875 134.126 40.984 130.317 40.984 125.702C40.984 125.041 40.9084 124.405 40.7573 123.788H40.7636C40.8707 123.75 40.9714 123.712 41.0658 123.662L48.2747 119.349H48.281C49.0428 118.896 49.5087 118.071 49.5087 117.19V103.093H59.4877V117.429C56.0816 118.506 53.5948 121.717 53.5948 125.463C53.5948 129.209 56.0817 132.42 59.4877 133.503V137.456L53.7647 142.883C52.644 142.323 51.3785 142.015 50.0438 142.015C45.4226 142.015 41.6261 145.799 41.6261 150.413C41.6261 155.035 45.4289 158.837 50.0438 158.837C54.665 158.837 58.4615 155.028 58.4615 150.413C58.4615 148.946 58.0774 147.568 57.4038 146.359L63.7375 140.378H63.7438C64.2474 139.893 64.5307 139.226 64.5245 138.533V133.496C67.9243 132.414 70.4173 129.203 70.4173 125.463C70.4173 121.723 67.9241 118.518 64.5245 117.436V103.094H77.7081V153.361L75.8949 157.793C75.3849 157.692 74.856 157.642 74.3209 157.642C69.6997 157.642 65.9032 161.445 65.9032 166.06C65.9032 170.681 69.706 174.458 74.3209 174.458C78.9421 174.458 82.7386 170.674 82.7386 166.06C82.7386 163.787 81.8194 161.715 80.3335 160.192L82.5371 154.809L82.5434 154.815C82.6693 154.519 82.7386 154.192 82.7449 153.871V103.094H98.069V126.15C94.6692 127.227 92.1762 130.425 92.1762 134.165C92.1762 137.905 94.6694 141.116 98.069 142.199V164.542C94.6692 165.625 92.1762 168.836 92.1762 172.576C92.1762 177.197 95.9789 181 100.594 181C105.215 181 108.993 177.197 108.993 172.576C108.993 168.83 106.506 165.619 103.1 164.536V142.199C106.506 141.122 108.993 137.905 108.993 134.159C108.993 130.413 106.506 127.215 103.1 126.144L103.106 103.095H118.443V108.666C115.037 109.743 112.55 112.941 112.55 116.688C112.55 120.434 115.037 123.644 118.443 124.727V153.871H118.436C118.443 154.192 118.506 154.513 118.625 154.815L120.829 160.211C119.356 161.728 118.436 163.8 118.436 166.066C118.436 170.687 122.239 174.465 126.854 174.465C131.475 174.465 135.253 170.681 135.253 166.066C135.253 161.445 131.469 157.649 126.854 157.649C126.319 157.649 125.79 157.705 125.28 157.8L123.467 153.367V124.722C126.867 123.639 129.36 120.428 129.36 116.688C129.36 112.948 126.867 109.756 123.467 108.673L123.473 103.095H134.743V138.534C134.743 139.227 135.032 139.894 135.542 140.373L141.864 146.354C141.19 147.556 140.806 148.941 140.806 150.415C140.806 155.036 144.609 158.839 149.223 158.839C153.845 158.839 157.641 155.03 157.641 150.415C157.641 145.793 153.838 142.016 149.223 142.016C147.889 142.016 146.623 142.331 145.503 142.891L139.78 137.458L139.773 103.095H149.759V117.192C149.765 118.073 150.231 118.898 150.993 119.351L158.201 123.664C158.302 123.714 158.403 123.758 158.504 123.796C158.359 124.413 158.277 125.049 158.277 125.704C158.277 130.325 162.08 134.128 166.695 134.128C171.316 134.128 175.112 130.319 175.112 125.704C175.112 121.083 171.31 117.286 166.695 117.286C164.516 117.286 162.514 118.13 161.016 119.509H161.022C160.947 119.452 160.871 119.395 160.789 119.351L154.802 115.762V103.095H178.651C179.092 103.101 179.526 102.988 179.91 102.768C180.697 102.321 181.176 101.49 181.182 100.589C181.182 56.1082 145.075 20.0018 100.594 20.0018L100.594 20ZM103.1 25.2256C112.128 26.4281 120.64 34.0399 127.17 46.549C129.398 50.8176 131.337 55.6528 132.962 60.9163C123.776 58.7632 113.703 57.5102 103.107 57.3402L103.1 25.2256ZM98.063 25.2319L98.0692 57.3412C87.4733 57.5112 77.4002 58.764 68.2148 60.9109C69.8391 55.6475 71.7845 50.8123 74.0134 46.5436C80.536 34.0462 89.048 26.4338 98.0704 25.225L98.063 25.2319ZM82.5373 27.234C77.5825 31.4334 73.1879 37.2507 69.5489 44.2267C66.7346 49.6223 64.3232 55.7418 62.4093 62.4088C55.7357 64.3228 49.6223 66.7278 44.2272 69.5421C37.6101 72.9922 32.032 77.1223 27.8889 81.7624C34.7325 54.9477 55.7044 33.8564 82.5368 27.2273L82.5373 27.234ZM118.65 27.234C145.483 33.8636 166.455 54.9545 173.298 81.7756C169.155 77.1292 163.577 72.9991 156.96 69.549C151.564 66.7348 145.445 64.3297 138.771 62.4158C136.864 55.7421 134.452 49.6288 131.638 44.2336C127.999 37.2578 123.611 31.4404 118.649 27.241L118.65 27.234ZM98.0681 62.3782V98.0575H62.6161C62.8176 86.7564 64.2341 76.041 66.6455 66.4962C76.1396 64.0409 86.7923 62.5734 98.0681 62.3782ZM103.105 62.3782C114.387 62.5671 125.039 64.0402 134.54 66.4957C136.945 76.0403 138.349 86.7619 138.557 98.057H103.105L103.105 62.3782ZM140.238 68.1138C145.508 69.7822 150.343 71.7653 154.637 74.0066C167.096 80.5104 173.915 89.0728 175.154 98.0572H143.82C143.65 87.4296 142.397 77.3249 140.238 68.1138ZM60.9415 68.1201C58.7821 77.3309 57.5228 87.4353 57.3528 98.0567H26.0236C27.2702 89.0662 34.0886 80.5096 46.5476 74.0062C50.8352 71.7649 55.664 69.7816 60.9337 68.1196L60.9415 68.1201ZM120.947 113.325C122.842 113.325 124.328 114.792 124.328 116.687C124.328 118.582 122.842 120.068 120.947 120.074C119.052 120.074 117.566 118.588 117.566 116.687C117.566 114.792 119.052 113.325 120.947 113.325ZM61.9988 122.076C63.8939 122.076 65.3797 123.562 65.3797 125.463C65.3797 127.358 63.8939 128.844 61.9988 128.844C60.1037 128.844 58.6368 127.358 58.6368 125.463C58.6368 123.568 60.1038 122.076 61.9988 122.076ZM32.5715 122.322C34.4666 122.322 35.9524 123.801 35.9524 125.703C35.9524 127.598 34.4666 129.09 32.5715 129.09C30.6764 129.09 29.1905 127.604 29.1905 125.703C29.1905 123.807 30.6764 122.322 32.5715 122.322ZM166.706 122.322C168.601 122.322 170.093 123.801 170.093 125.703C170.093 127.598 168.607 129.084 166.706 129.09C164.811 129.09 163.325 127.604 163.325 125.703C163.325 123.807 164.811 122.322 166.706 122.322ZM100.599 130.777C102.494 130.777 103.98 132.263 103.98 134.164C103.98 136.059 102.494 137.552 100.599 137.552C98.7035 137.552 97.2176 136.066 97.2176 134.164C97.2176 132.269 98.7034 130.777 100.599 130.777ZM50.0493 147.046C51.9444 147.046 53.4365 148.513 53.4365 150.408C53.4365 152.303 51.9507 153.795 50.0493 153.795C48.1542 153.795 46.6683 152.309 46.6683 150.408C46.6683 148.513 48.1542 147.046 50.0493 147.046ZM149.228 147.046C151.123 147.046 152.609 148.513 152.609 150.408C152.609 152.303 151.123 153.789 149.228 153.795C147.333 153.795 145.841 152.309 145.841 150.408C145.841 148.513 147.327 147.046 149.228 147.046ZM74.3254 162.685C76.2205 162.685 77.7127 164.171 77.7127 166.072C77.7127 167.967 76.2268 169.434 74.3254 169.434C72.4303 169.434 70.9445 167.967 70.9445 166.072C70.9445 164.177 72.4303 162.691 74.3254 162.685ZM126.865 162.685C128.76 162.685 130.227 164.171 130.227 166.072C130.227 167.967 128.76 169.434 126.865 169.434C124.97 169.434 123.484 167.967 123.484 166.072C123.484 164.177 124.97 162.685 126.865 162.685ZM100.592 169.189C102.487 169.189 103.973 170.675 103.973 172.576C103.973 174.471 102.487 175.957 100.592 175.957C98.697 175.957 97.2111 174.477 97.2111 172.576C97.2111 170.681 98.697 169.189 100.592 169.189Z" fill="#D92326"/>
</svg>
