<svg width="201" height="200" viewBox="0 0 201 200" fill="none" xmlns="http://www.w3.org/2000/svg">
<path d="M100.487 98.5703C72.0701 98.5703 48.9766 122.611 48.9766 152.278C48.9726 155.877 49.3152 159.468 49.9996 163.001H150.994C151.669 159.467 152.011 155.877 152.017 152.278C152.017 122.611 128.942 98.5703 100.487 98.5703Z" fill="#D92326"/>
<path d="M115.222 89.7534C129.316 81.6259 134.153 63.6116 126.025 49.5174C117.898 35.4231 99.8837 30.5861 85.7894 38.7136C71.6952 46.8411 66.8582 64.8553 74.9856 78.9496C83.1131 93.0438 101.127 97.8808 115.222 89.7534Z" fill="#D92326"/>
<path d="M132.333 77.6228C135.966 80.2631 140.291 81.7866 144.776 82.0069C149.262 82.2272 153.715 81.1347 157.589 78.8632C161.464 76.5916 164.592 73.2396 166.59 69.2176C168.589 65.1956 169.371 60.6781 168.842 56.2182C168.312 51.7583 166.494 47.5496 163.609 44.1075C160.724 40.6653 156.898 38.139 152.599 36.8379C148.301 35.5369 143.716 35.5174 139.406 36.7821C135.097 38.0467 131.25 40.5406 128.336 43.9582C131.862 48.7604 134.084 54.3945 134.784 60.311C135.485 66.2275 134.64 72.2246 132.333 77.7175V77.6228Z" fill="#D92326"/>
<path d="M145.858 86.1836C135.915 86.2032 126.347 89.9791 119.07 96.7547C120.264 97.1904 121.438 97.6451 122.594 98.1566C129.359 101.172 135.467 105.484 140.572 110.85C147.564 118.097 152.557 127.032 155.065 136.785H185.377C185.934 134.002 186.225 131.173 186.248 128.335C186.248 105.09 168.156 86.1836 145.858 86.1836Z" fill="#D92326"/>
<path d="M78.4 98.1945C79.8019 97.5693 81.2038 97.001 82.6436 96.5084C75.3988 89.8812 65.9398 86.1989 56.121 86.1836C33.8421 86.1836 15.75 105.09 15.75 128.335C15.7539 131.171 16.0266 134 16.5646 136.785H45.9099C48.4231 127.029 53.4155 118.088 60.4025 110.831C65.5218 105.487 71.6354 101.195 78.4 98.1945Z" fill="#D92326"/>
<path d="M56.1345 82.0051C60.6712 82.0292 65.1138 80.7109 68.9032 78.2162C66.4131 72.5553 65.4914 66.3289 66.2346 60.1894C66.9779 54.0499 69.3588 48.2233 73.1278 43.3202C70.5293 40.4999 67.2693 38.3711 63.6421 37.1261C60.015 35.881 56.1349 35.5588 52.3521 36.1885C48.5693 36.8182 45.0028 38.3801 41.9746 40.7331C38.9465 43.0861 36.552 46.1561 35.0072 49.6661C33.4625 53.1761 32.8161 57.0156 33.1266 60.8379C33.437 64.6602 34.6944 68.345 36.7853 71.5597C38.8762 74.7745 41.7347 77.4179 45.1029 79.2515C48.471 81.085 52.2428 82.0509 56.0776 82.062L56.1345 82.0051Z" fill="#D92326"/>
</svg>
