<svg width="43" height="43" viewBox="0 0 43 43" fill="none" xmlns="http://www.w3.org/2000/svg">
<path fill-rule="evenodd" clip-rule="evenodd" d="M10.7234 23.5755C12.0812 22.1988 13.9241 21.4248 15.8462 21.4248H27.156C29.0764 21.4248 30.9192 22.1988 32.2788 23.5755C33.6366 24.9542 34.4 26.8227 34.4 28.7695V39.1623C34.4 40.0512 33.6883 40.7748 32.8096 40.7748C31.9309 40.7748 31.2192 40.0512 31.2192 39.1623V28.7695C31.2192 27.6771 30.7918 26.629 30.0284 25.855C29.2671 25.083 28.2333 24.6497 27.1558 24.6497H15.8461C14.7686 24.6497 13.7349 25.083 12.9715 25.855C12.2101 26.629 11.7807 27.6771 11.7807 28.7695V39.1623C11.7807 40.0512 11.0691 40.7748 10.1904 40.7748C9.31364 40.7748 8.59998 40.0512 8.59998 39.1623V28.7695C8.59998 26.8225 9.36366 24.954 10.7234 23.5755Z" fill="#D92127"/>
<path fill-rule="evenodd" clip-rule="evenodd" d="M22.0375 4.22483C19.3668 4.22483 17.2 6.39151 17.2 9.06208C17.2 10.4689 17.7925 12.3051 18.8064 13.7864C19.8485 15.3081 21.0357 16.0499 22.0375 16.0499C23.0392 16.0499 24.2264 15.3081 25.2685 13.7864C26.2823 12.305 26.875 10.4689 26.875 9.06208C26.875 6.39151 24.7082 4.22483 22.0375 4.22483ZM13.975 9.06208C13.975 4.6098 17.585 1 22.0375 1C26.49 1 30.1 4.6098 30.1 9.06208C30.1 11.2187 29.2494 13.6816 27.9292 15.6088C26.6351 17.4993 24.5994 19.275 22.0375 19.275C19.4756 19.275 17.4398 17.4993 16.1458 15.6088C14.8256 13.6819 13.975 11.219 13.975 9.06208Z" fill="#D92127"/>
<path fill-rule="evenodd" clip-rule="evenodd" d="M31.2078 4.40664C31.3831 3.55794 32.2358 3.0091 33.1086 3.18161C36.2973 3.81274 38.7 6.55293 38.7 9.84167C38.7 11.4352 38.1336 13.1992 37.2508 14.6693C36.378 16.1217 35.0436 17.5388 33.3082 18.1151C32.4656 18.3954 31.5505 17.9583 31.2623 17.139C30.974 16.3197 31.4235 15.4278 32.2661 15.1475C32.9836 14.9084 33.8 14.195 34.4652 13.0875C35.1182 11.9996 35.475 10.7766 35.475 9.84162C35.475 8.07366 34.1829 6.59378 32.4656 6.25473C31.5928 6.08224 31.0304 5.25534 31.2078 4.40664Z" fill="#D92127"/>
<path fill-rule="evenodd" clip-rule="evenodd" d="M35.527 22.6481C35.7487 21.7766 36.6274 21.2512 37.49 21.4773C39.066 21.8886 40.4626 22.8171 41.4582 24.1162C42.4558 25.4154 42.998 27.0118 43 28.657V38.0708C43 38.9708 42.2765 39.6998 41.3877 39.6998C40.4969 39.6998 39.7754 38.9708 39.7754 38.0708V28.6591C39.7734 27.7367 39.4691 26.8408 38.9108 26.1118C38.3506 25.3828 37.5686 24.8616 36.6839 24.6315C35.8213 24.4075 35.3033 23.5176 35.527 22.6481Z" fill="#D92127"/>
<path fill-rule="evenodd" clip-rule="evenodd" d="M12.8672 4.40638C13.0445 5.25508 12.4803 6.08221 11.6078 6.25472C9.89092 6.59381 8.59923 8.07366 8.59923 9.84161C8.59923 10.7766 8.95591 11.9996 9.60879 13.0875C10.2738 14.1949 11.0899 14.9084 11.8093 15.1475C12.6516 15.4278 13.101 16.3196 12.8128 17.139C12.5246 17.9583 11.6078 18.3954 10.7654 18.1151C9.03039 17.5388 7.69641 16.1217 6.82588 14.6693C5.94127 13.1992 5.375 11.4352 5.375 9.84166C5.375 6.55267 7.77699 3.81233 10.967 3.1816C11.8396 3.00911 12.6899 3.55768 12.8672 4.40638Z" fill="#D92127"/>
<path fill-rule="evenodd" clip-rule="evenodd" d="M7.47294 22.6481C7.25125 21.7766 6.37256 21.2512 5.50998 21.4773C3.93397 21.8886 2.53735 22.8171 1.54175 24.1162C0.544152 25.4154 0.00201213 27.0118 0 28.657V38.0708C0 38.9708 0.723489 39.6998 1.61228 39.6998C2.50309 39.6998 3.22456 38.9708 3.22456 38.0708V28.6591C3.22658 27.7367 3.5309 26.8408 4.08916 26.1118C4.64941 25.3828 5.4314 24.8616 6.31612 24.6315C7.1787 24.4075 7.69665 23.5176 7.47294 22.6481Z" fill="#D92127"/>
</svg>
